<?xml version="1.0" encoding="UTF-8"?>
<svg id="Layer_2" data-name="Layer 2" xmlns="http://www.w3.org/2000/svg" viewBox="0 0 395.44 67.72">
  <defs>
    <style>
      .cls-1 {
        fill: #1a0047;
      }
    </style>
  </defs>
  <g id="Layer_1-2" data-name="Layer 1">
    <g>
      <path class="cls-1" d="M48.96,66.6l-7.38-19.62h-23.94l-7.38,19.62H0L25.29,0h8.73l25.29,66.6h-10.35ZM29.79,12.6h-.18l-8.55,25.47h17.19l-8.46-25.47Z"/>
      <path class="cls-1" d="M82.59,45.08v-7.92h37.44c-.56,19.68-15.44,30.56-31.2,30.56s-29.68-13.92-29.68-29.92c0-19.2,14.72-31.52,29.68-31.52,11.36,0,21.12,5.36,27.12,16h-10.08c-5.04-5.76-10.08-8.08-16.64-8.08-11.52,0-21.44,10.88-21.44,22.56,0,12.48,9.84,23.04,21.76,23.04,9.36,0,16.88-5.2,20.64-14.72h-27.6Z"/>
      <path class="cls-1" d="M162.51,66.6l-6.56-17.44h-21.28l-6.56,17.44h-9.12l22.48-59.2h7.76l22.48,59.2h-9.2ZM145.47,18.6h-.16l-7.6,22.64h15.28l-7.52-22.64Z"/>
      <path class="cls-1" d="M198.77,22.76c0-5.36-3.44-8.56-8.32-8.56-4.16,0-7.92,3.76-7.92,8.08s2.8,6.56,8.56,8.4c12.8,4.08,17.52,8.88,17.52,19.12s-7.68,17.92-18.16,17.92-18.08-7.52-18.24-18.64h8.64c.08,6.4,3.84,10.72,9.6,10.72s9.52-4.16,9.52-10c0-4.32-1.92-7.04-8.24-9.2-14.64-4.96-17.84-9.76-17.84-18.16,0-9.04,7.44-16.16,16.56-16.16,9.76,0,16.8,6.16,16.96,16.48h-8.64Z"/>
      <path class="cls-1" d="M216.19,66.6V7.4h17.2c12.72,0,20.8,6.32,20.8,17.92s-7.92,17.92-20.72,17.92h-8.64v23.36h-8.64ZM233.39,35.32c7.6,0,12.16-3.6,12.16-10s-4.72-10-12.24-10h-8.48v20h8.56Z"/>
      <path class="cls-1" d="M259.09,66.6V7.4h31.92v7.92h-23.28v17.44h23.28v7.92h-23.28v18h23.28v7.92h-31.92Z"/>
      <path class="cls-1" d="M328.13,66.6l-19.52-27.44h-.16v27.44h-8.64V7.4h18.96c14.24,0,20.56,7.52,20.56,19.68,0,11.28-8.64,17.2-16.96,17.44l16.56,22.08h-10.8ZM314.77,37.96c10.08,0,15.92-3.92,15.92-11.6,0-6.8-5.44-11.04-13.12-11.04h-9.12v22.64h6.32Z"/>
      <path class="cls-1" d="M386.24,66.6l-6.56-17.44h-21.28l-6.56,17.44h-9.12l22.48-59.2h7.76l22.48,59.2h-9.2ZM369.2,18.6h-.16l-7.6,22.64h15.28l-7.52-22.64Z"/>
    </g>
  </g>
</svg>